<svg xmlns="http://www.w3.org/2000/svg" viewBox="0 0 220 44.7"><path d="M21.4 11.5v-.2c.8-2.2 1.5-4.4 2.3-6.5 0-.1.1-.1.1-.1.7.1 1.4.1 2.1.2.1 0 .2.1.2.2.8 2.2 1.5 4.4 2.3 6.6.5 1.5 1 2.9 1.5 4.4 0 .1.1.2.2.2h3c-2.9 1.9-5.9 3.6-9 5.1v-.1c-.8-2.9-1.6-5.9-2.4-8.8-.1-.5-.2-.8-.3-1zm-11.3 12c1.2.8 2.4 1.7 3.7 2.5h.2l.9-.6c2-1.3 4-2.5 6-3.7.1 0 .1-.1.1-.2-.3-1-.7-2.1-1-3.1-.6-1.9-1.2-3.9-1.9-5.8v-.1.1c-.4 1.3-.7 2.5-1.1 3.8 0 .1-.1.1-.2.1-.4 0-.9 0-1.3.1-2 .1-4 .2-6 .4-.4 0-.7 0-1.1.1v.2c.2.8.3 1.5.5 2.3.3 1.3.6 2.6 1 3.9.1-.1.1 0 .2 0zm23.7 5.1c0-.1-.1-.2-.1-.3-.1-.2-.1-.2.1-.4.1-.1.2-.1.2-.2.2-1.1.4-2.1.6-3.2.4-2 1-4 1.6-5.9v-.1H34.5c-.1 0-.2 0-.3.1-2 1.3-4 2.5-6.1 3.6-1.1.6-2.2 1.2-3.4 1.7-.1 0-.1.1-.1.2l1.2 4.5c0 .1.1.1.1.1 2.5.1 5 .1 7.5.2.4-.1.4-.1.4-.3zM23.6 34c0-.1-.1-.2-.2-.2s-.3-.1-.4-.1c-2.9-.7-5.8-1.5-8.6-2.4-.2-.1-.4-.1-.5-.2-.2.8-.5 1.5-.7 2.3v.2c.2.4.4.8.6 1.1.9 1.6 1.7 3.3 2.5 5.1 0 0 0 .1.1.1s.1-.1.2-.1c2-1.4 3.9-2.7 5.9-4.1.1-.1.2-.1.2 0 .6.4 1.1.8 1.7 1.2l.2.1c-.1-.3-.2-.5-.2-.8-.4-.7-.6-1.4-.8-2.2zm15.7 8.3c-.7-1.8-1.4-3.6-2-5.4 0-.1-.1-.1-.1-.1-1.5-.2-3-.3-4.5-.5-1.2-.2-2.5-.3-3.7-.5l-.5-.1v.1c.4 1.1.8 2.1 1.2 3.2 0 .1.1.1.1.1.9.5 1.7 1 2.6 1.4 2.5 1.4 5 2.7 7.6 3.9 0 0 .1 0 .1.1v-.2c-.3-.7-.5-1.3-.8-2zm6.1-25c0-.1-.1-.1-.1-.1-2 .1-4 .1-6 .2-.1 0-.2 0-.2.1-.2.7-.4 1.3-.5 2-.5 2.1-.9 4.2-1.1 6.4 0 .2 0 .4-.1.6.1 0 .1-.1.1-.1 1.3-1.1 2.6-2.2 3.8-3.3l4.2-3.6c.1-.1.1-.1.1-.2-.1-.8-.2-1.4-.2-2zM35.4 35c.1 0 .3.1.4.1V35l-1.3-4.3c0-.1-.1-.1-.2-.1h-1.4l-5.3-.1h-1v.1c.2.8.4 1.7.7 2.5 0 .1.1.1.2.1.4.1.8.2 1.3.3 2.1.4 4.4 1 6.6 1.5zm-20.5 5.6c-.6-1.8-1.4-3.6-2.2-5.4-.1-.1-.1-.3-.2-.4-1.2 3.1-2.4 6.1-3.5 9.3.2-.1.5-.2.7-.3 1.7-.9 3.4-1.7 5-2.6.2-.1.2-.1.2-.4v-.2zm7.7-15.9c-2.4 1.3-4.7 2.5-7 3.8-.1.1-.2.2-.2.4l8.4.3-1.2-4.5zM6.1 19.4c-.1-1.3-.1-2.5-.2-3.8 0-.1 0-.1-.1-.1h-.5l-4.5-.3H0c2 2.2 4.2 4.3 6.4 6.4v-.1l-.3-2.1zM14.5 30c0 .1 0 .1.1.1 2.9.9 5.8 1.7 8.7 2.4.2.1.5.1.7.2v-.1c-.2-.8-.5-1.7-.7-2.5 0-.1-.1-.1-.2-.1-.7 0-1.4 0-2.1-.1-2-.1-4.1-.2-6.1-.3-.4.2-.3.1-.4.4zM25.1 0l-.6 2.8 2.1-.1L25.1 0zM13.5 4.9l-1 2.5h1.8l-.8-2.5zm35.7 10.4l-.2 1.8 2.1-1.2-1.9-.6zm-9.6-3.6l-1.3.9.8.7.5-1.6zM41.8 34l-.5 1.6h1l-.5-1.6zM7.2 35.3l.5.9 1-1.2-1.5.3zm85.6-4.4c0 5.5-3.1 8.3-9.3 8.3-6.2 0-9.3-2.8-9.3-8.3 0-2.7.8-4.8 2.3-6.2 1.5-1.4 3.9-2.1 7-2.1s5.5.7 7 2.1c1.5 1.4 2.3 3.5 2.3 6.2zm-6.4 0c.1-1-.2-2-.7-2.8-.6-.6-1.4-1-2.2-.9-.8-.1-1.6.3-2.2.9-.5.8-.7 1.8-.7 2.8-.1 1 .2 2 .7 2.8.5.6 1.4.9 2.2.9.8.1 1.7-.2 2.2-.9.5-.8.8-1.8.7-2.8zm-16.4.4c.2.2.5.4.6.7l.6 1.2 2.5 5.7h-6.6l-2.3-5.2c-.1-.3-.4-.6-.7-.9-.3-.2-.7-.3-1.1-.3h-1.8v6.3h-6.3V17.3h11.2c2.5 0 4.5.7 5.8 2.1 1.4 1.5 2 3.5 1.9 5.6 0 1.3-.3 2.7-1.1 3.8-.5 1-1.5 1.9-2.7 2.5zm-2.4-6.4c0-1.9-.9-2.8-2.7-2.8h-3.5v5.6h3.3c.8 0 1.5-.2 2.1-.7.6-.6.9-1.3.8-2.1zm152 6.9c-.3-.6-.8-1.2-1.4-1.5-.9-.5-1.8-.9-2.8-1.2l-1.5-.4c-.5-.1-1.1-.3-1.6-.5-.3-.1-.4-.3-.5-.6 0-.3.2-.5.7-.6.7-.1 1.4-.1 2.1-.1.7 0 1.5.1 2.2.2.7.1 1.5.3 2.2.6v-4.4c-.9-.2-1.8-.4-2.6-.5-1-.2-2.1-.2-3.1-.2-5.2 0-7.8 1.7-7.8 5-.1 1.1.3 2.1 1 2.9 1 .9 2.1 1.5 3.3 1.9l1.7.5c.6.2 1.1.3 1.7.6.3.2.5.4.5.6 0 .3-.2.5-.5.6-.6.1-1.3.1-2 .1-1 0-1.9-.1-2.8-.3-.9-.2-1.8-.4-2.7-.8v4.5c.9.3 1.9.6 2.9.7 1.3.2 2.5.3 3.8.3 2.5 0 4.5-.4 5.8-1.3 1.3-.8 2-2.2 2-3.7-.2-.9-.3-1.6-.6-2.4zm-75.1-14.5l-5 14.3-5-14.3h-6.6l8.3 21.5h6.7l8.3-21.5h-6.7zM128.7 23h-7.1l-4.4 4.4V16.3h-6.3v22.5h6.3v-4.6l1.3-1.3 3.9 5.9h6.7l-6.7-9.2 6.3-6.6zm-27.9 10.7c-.8-.7-1.1-1.8-1-2.8 0-1.3.4-2.3 1.1-2.8 1-.6 2.1-.9 3.3-.8 1.5 0 3.1.3 4.5.9v-4.4c-.8-.4-1.7-.7-2.7-.9-1.1-.2-2.1-.3-3.2-.3-2.9 0-5.2.7-6.9 2.1-1.7 1.4-2.5 3.5-2.5 6.2s.8 4.8 2.5 6.2 3.9 2.1 6.9 2.1c2 .1 4-.3 5.9-1.1v-4.6c-1.4.7-2.9 1.1-4.5 1.1-1.3.1-2.5-.2-3.4-.9zm65.5-3.7v2.8h-11c.3.8.9 1.5 1.7 1.8 1.1.4 2.3.6 3.5.6.9 0 1.8-.1 2.7-.2.8-.1 1.5-.3 2.3-.6v3.8c-2.1.8-4.3 1.2-6.5 1.1-2.9 0-5.1-.7-6.8-2.1-1.7-1.4-2.6-3.5-2.6-6.1 0-2.6.7-4.6 2.2-6.1s3.6-2.2 6.4-2.2c2.6 0 4.6.7 6.1 2 1.3 1.2 2.1 3.2 2 5.2zm-5.4-1.2c0-1.4-.9-2.1-2.6-2.1-.8-.1-1.6.2-2.3.7-.5.6-.7 1.3-.7 2h5.6v-.6zm42.3.3v9.8h-5.5l-.3-1.3c-1.2 1.1-3 1.6-5.4 1.6-1.5.1-2.9-.4-4-1.3s-1.7-2.4-1.6-3.8c-.1-1.5.5-2.9 1.7-3.9 1.1-.9 2.8-1.4 5-1.4h4.1v-.3c0-.6-.3-1.1-.8-1.4-.9-.4-1.8-.5-2.7-.4-1.8 0-3.7.3-5.4.8v-3.8c1-.4 2-.6 3-.8 1.2-.2 2.4-.3 3.6-.3 2.6 0 4.6.5 6 1.6 1.6 1.1 2.3 2.7 2.3 4.9zm-6 3.1h-3c-.6 0-1.1.1-1.6.4-.4.3-.5.8-.5 1.2 0 1.1.7 1.6 2 1.6 1.2 0 2.3-.4 3.1-1.3v-1.9zM179 23h6.2l-.1 3.8H183c.4.5.6 1.2.6 1.9.1 1.4-.4 2.9-1.5 3.9-1 .9-2.5 1.4-4.4 1.4-.6 0-1.3-.1-1.9-.1-1.2.1-1.8.4-1.8.9 0 .2.1.4.3.5.3.1.6.1.9.1h3.6c1.4-.1 2.8.3 3.9 1.2 1 .8 1.5 2.1 1.4 3.3 0 1.5-.8 3-2.2 3.6-1.5.8-3.7 1.3-6.7 1.3-1.3 0-2.7-.1-4-.2-1.1-.1-2.1-.3-3.2-.6v-4c1 .3 2.1.6 3.2.7 1.2.2 2.4.2 3.6.2 1 0 1.9 0 2.8-.2.6-.1 1-.3 1-.7 0-.2-.1-.4-.3-.5-.4-.1-.8-.1-1.3-.1h-4.2c-1.3.1-2.6-.2-3.8-.8-.8-.5-1.3-1.4-1.3-2.4 0-.7.2-1.3.6-1.9.5-.6 1.1-1 1.8-1.2-.8-.4-1.5-1-2-1.8s-.7-1.8-.6-2.7c0-4 2.7-6 8.1-6 .6 0 1.2 0 1.8.1.7.1 1.2.2 1.6.3zm-.8 5.3c.1-.6-.2-1.3-.6-1.7-1.2-.7-2.8-.7-4 0-.5.5-.7 1.1-.6 1.7-.1.6.2 1.2.6 1.7.6.4 1.3.6 2 .5.7.1 1.4-.1 2-.5.5-.4.7-1.1.6-1.7z" fill="#fff"/></svg>